<mxfile host="65bd71144e">
    <diagram name="Page-1" id="9f46799a-70d6-7492-0946-bef42562c5a5">
        <mxGraphModel dx="822" dy="619" grid="1" gridSize="10" guides="0" tooltips="1" connect="1" arrows="1" fold="1" page="1" pageScale="1" pageWidth="413" pageHeight="291" background="#ffffff" math="0" shadow="0">
            <root>
                <mxCell id="0"/>
                <mxCell id="1" parent="0"/>
                <mxCell id="78961159f06e98e8-17" value="&lt;font style=&quot;font-size: 18px;&quot;&gt;Account&lt;/font&gt;" style="swimlane;html=1;fontStyle=1;align=center;verticalAlign=middle;childLayout=stackLayout;horizontal=1;startSize=26;horizontalStack=0;resizeParent=1;resizeLast=0;collapsible=1;marginBottom=0;swimlaneFillColor=#ffffff;rounded=0;shadow=0;comic=0;labelBackgroundColor=none;strokeColor=#b85450;strokeWidth=1;fillColor=#f8cecc;fontFamily=Verdana;fontSize=18;" parent="1" vertex="1">
                    <mxGeometry x="750" y="56" width="160" height="188" as="geometry"/>
                </mxCell>
                <mxCell id="78961159f06e98e8-21" value="+ Id: int" style="text;html=1;strokeColor=none;fillColor=none;align=left;verticalAlign=middle;spacingLeft=4;spacingRight=4;whiteSpace=wrap;overflow=hidden;rotatable=0;points=[[0,0.5],[1,0.5]];portConstraint=eastwest;fontSize=18;" parent="78961159f06e98e8-17" vertex="1">
                    <mxGeometry y="26" width="160" height="26" as="geometry"/>
                </mxCell>
                <mxCell id="78961159f06e98e8-23" value="+ Name: str" style="text;html=1;strokeColor=none;fillColor=none;align=left;verticalAlign=middle;spacingLeft=4;spacingRight=4;whiteSpace=wrap;overflow=hidden;rotatable=0;points=[[0,0.5],[1,0.5]];portConstraint=eastwest;fontSize=18;" parent="78961159f06e98e8-17" vertex="1">
                    <mxGeometry y="52" width="160" height="26" as="geometry"/>
                </mxCell>
                <mxCell id="78961159f06e98e8-25" value="+ Document: str" style="text;html=1;strokeColor=none;fillColor=none;align=left;verticalAlign=middle;spacingLeft=4;spacingRight=4;whiteSpace=wrap;overflow=hidden;rotatable=0;points=[[0,0.5],[1,0.5]];portConstraint=eastwest;fontSize=18;" parent="78961159f06e98e8-17" vertex="1">
                    <mxGeometry y="78" width="160" height="26" as="geometry"/>
                </mxCell>
                <mxCell id="erokDJiNw9TIyuJxXN1H-2" value="+ Email: str" style="text;html=1;strokeColor=none;fillColor=none;align=left;verticalAlign=middle;spacingLeft=4;spacingRight=4;whiteSpace=wrap;overflow=hidden;rotatable=0;points=[[0,0.5],[1,0.5]];portConstraint=eastwest;fontSize=18;" parent="78961159f06e98e8-17" vertex="1">
                    <mxGeometry y="104" width="160" height="26" as="geometry"/>
                </mxCell>
                <mxCell id="78961159f06e98e8-26" value="+ Password: str" style="text;html=1;strokeColor=none;fillColor=none;align=left;verticalAlign=middle;spacingLeft=4;spacingRight=4;whiteSpace=wrap;overflow=hidden;rotatable=0;points=[[0,0.5],[1,0.5]];portConstraint=eastwest;fontSize=18;" parent="78961159f06e98e8-17" vertex="1">
                    <mxGeometry y="130" width="160" height="26" as="geometry"/>
                </mxCell>
                <mxCell id="78961159f06e98e8-19" value="" style="line;html=1;strokeWidth=1;fillColor=none;align=left;verticalAlign=middle;spacingTop=-1;spacingLeft=3;spacingRight=3;rotatable=0;labelPosition=right;points=[];portConstraint=eastwest;" parent="78961159f06e98e8-17" vertex="1">
                    <mxGeometry y="156" width="160" height="8" as="geometry"/>
                </mxCell>
                <mxCell id="erokDJiNw9TIyuJxXN1H-3" value="Driver" style="swimlane;html=1;fontStyle=1;align=center;verticalAlign=middle;childLayout=stackLayout;horizontal=1;startSize=26;horizontalStack=0;resizeParent=1;resizeLast=0;collapsible=1;marginBottom=0;swimlaneFillColor=#ffffff;rounded=0;shadow=0;comic=0;labelBackgroundColor=none;strokeColor=#6c8ebf;strokeWidth=1;fillColor=#dae8fc;fontFamily=Verdana;fontSize=18;" parent="1" vertex="1">
                    <mxGeometry x="490" y="324" width="160" height="80" as="geometry"/>
                </mxCell>
                <mxCell id="erokDJiNw9TIyuJxXN1H-9" value="" style="line;html=1;strokeWidth=1;fillColor=none;align=left;verticalAlign=middle;spacingTop=-1;spacingLeft=3;spacingRight=3;rotatable=0;labelPosition=right;points=[];portConstraint=eastwest;" parent="erokDJiNw9TIyuJxXN1H-3" vertex="1">
                    <mxGeometry y="26" width="160" height="54" as="geometry"/>
                </mxCell>
                <mxCell id="erokDJiNw9TIyuJxXN1H-10" value="User" style="swimlane;html=1;fontStyle=1;align=center;verticalAlign=middle;childLayout=stackLayout;horizontal=1;startSize=26;horizontalStack=0;resizeParent=1;resizeLast=0;collapsible=1;marginBottom=0;swimlaneFillColor=#ffffff;rounded=0;shadow=0;comic=0;labelBackgroundColor=none;strokeColor=#6c8ebf;strokeWidth=1;fillColor=#dae8fc;fontFamily=Verdana;fontSize=18;" parent="1" vertex="1">
                    <mxGeometry x="1010" y="327" width="160" height="76" as="geometry"/>
                </mxCell>
                <mxCell id="erokDJiNw9TIyuJxXN1H-16" value="" style="line;html=1;strokeWidth=1;fillColor=none;align=left;verticalAlign=middle;spacingTop=-1;spacingLeft=3;spacingRight=3;rotatable=0;labelPosition=right;points=[];portConstraint=eastwest;" parent="erokDJiNw9TIyuJxXN1H-10" vertex="1">
                    <mxGeometry y="26" width="160" height="44" as="geometry"/>
                </mxCell>
                <mxCell id="erokDJiNw9TIyuJxXN1H-17" value="Trip" style="swimlane;html=1;fontStyle=1;align=center;verticalAlign=middle;childLayout=stackLayout;horizontal=1;startSize=26;horizontalStack=0;resizeParent=1;resizeLast=0;collapsible=1;marginBottom=0;swimlaneFillColor=#ffffff;rounded=0;shadow=0;comic=0;labelBackgroundColor=none;strokeColor=#82b366;strokeWidth=1;fillColor=#d5e8d4;fontFamily=Verdana;fontSize=18;" parent="1" vertex="1">
                    <mxGeometry x="1010" y="486" width="160" height="134" as="geometry"/>
                </mxCell>
                <mxCell id="erokDJiNw9TIyuJxXN1H-18" value="+ Route: [ ]" style="text;html=1;strokeColor=none;fillColor=none;align=left;verticalAlign=middle;spacingLeft=4;spacingRight=4;whiteSpace=wrap;overflow=hidden;rotatable=0;points=[[0,0.5],[1,0.5]];portConstraint=eastwest;fontSize=18;" parent="erokDJiNw9TIyuJxXN1H-17" vertex="1">
                    <mxGeometry y="26" width="160" height="26" as="geometry"/>
                </mxCell>
                <mxCell id="erokDJiNw9TIyuJxXN1H-19" value="+ Car: [ ]" style="text;html=1;strokeColor=none;fillColor=none;align=left;verticalAlign=middle;spacingLeft=4;spacingRight=4;whiteSpace=wrap;overflow=hidden;rotatable=0;points=[[0,0.5],[1,0.5]];portConstraint=eastwest;fontSize=18;" parent="erokDJiNw9TIyuJxXN1H-17" vertex="1">
                    <mxGeometry y="52" width="160" height="26" as="geometry"/>
                </mxCell>
                <mxCell id="erokDJiNw9TIyuJxXN1H-20" value="+ Payment: [ ]" style="text;html=1;strokeColor=none;fillColor=none;align=left;verticalAlign=middle;spacingLeft=4;spacingRight=4;whiteSpace=wrap;overflow=hidden;rotatable=0;points=[[0,0.5],[1,0.5]];portConstraint=eastwest;fontSize=18;" parent="erokDJiNw9TIyuJxXN1H-17" vertex="1">
                    <mxGeometry y="78" width="160" height="26" as="geometry"/>
                </mxCell>
                <mxCell id="erokDJiNw9TIyuJxXN1H-23" value="" style="line;html=1;strokeWidth=1;fillColor=none;align=left;verticalAlign=middle;spacingTop=-1;spacingLeft=3;spacingRight=3;rotatable=0;labelPosition=right;points=[];portConstraint=eastwest;" parent="erokDJiNw9TIyuJxXN1H-17" vertex="1">
                    <mxGeometry y="104" width="160" height="8" as="geometry"/>
                </mxCell>
                <mxCell id="erokDJiNw9TIyuJxXN1H-24" value="Route" style="swimlane;html=1;fontStyle=1;align=center;verticalAlign=middle;childLayout=stackLayout;horizontal=1;startSize=26;horizontalStack=0;resizeParent=1;resizeLast=0;collapsible=1;marginBottom=0;swimlaneFillColor=#ffffff;rounded=0;shadow=0;comic=0;labelBackgroundColor=none;strokeColor=#d79b00;strokeWidth=1;fillColor=#ffe6cc;fontFamily=Verdana;fontSize=18;" parent="1" vertex="1">
                    <mxGeometry x="1010" y="769" width="160" height="111" as="geometry"/>
                </mxCell>
                <mxCell id="erokDJiNw9TIyuJxXN1H-25" value="+ Origin: [float]" style="text;html=1;strokeColor=none;fillColor=none;align=left;verticalAlign=middle;spacingLeft=4;spacingRight=4;whiteSpace=wrap;overflow=hidden;rotatable=0;points=[[0,0.5],[1,0.5]];portConstraint=eastwest;fontSize=16;" parent="erokDJiNw9TIyuJxXN1H-24" vertex="1">
                    <mxGeometry y="26" width="160" height="26" as="geometry"/>
                </mxCell>
                <mxCell id="erokDJiNw9TIyuJxXN1H-26" value="+ Destination: [float]" style="text;html=1;strokeColor=none;fillColor=none;align=left;verticalAlign=middle;spacingLeft=4;spacingRight=4;whiteSpace=wrap;overflow=hidden;rotatable=0;points=[[0,0.5],[1,0.5]];portConstraint=eastwest;fontSize=16;" parent="erokDJiNw9TIyuJxXN1H-24" vertex="1">
                    <mxGeometry y="52" width="160" height="26" as="geometry"/>
                </mxCell>
                <mxCell id="erokDJiNw9TIyuJxXN1H-30" value="" style="line;html=1;strokeWidth=1;fillColor=none;align=left;verticalAlign=middle;spacingTop=-1;spacingLeft=3;spacingRight=3;rotatable=0;labelPosition=right;points=[];portConstraint=eastwest;" parent="erokDJiNw9TIyuJxXN1H-24" vertex="1">
                    <mxGeometry y="78" width="160" height="8" as="geometry"/>
                </mxCell>
                <mxCell id="erokDJiNw9TIyuJxXN1H-31" value="Car" style="swimlane;html=1;fontStyle=1;align=center;verticalAlign=middle;childLayout=stackLayout;horizontal=1;startSize=26;horizontalStack=0;resizeParent=1;resizeLast=0;collapsible=1;marginBottom=0;swimlaneFillColor=#ffffff;rounded=0;shadow=0;comic=0;labelBackgroundColor=none;strokeColor=#d79b00;strokeWidth=1;fillColor=#ffe6cc;fontFamily=Verdana;fontSize=18;" parent="1" vertex="1">
                    <mxGeometry x="410" y="766" width="160" height="164" as="geometry"/>
                </mxCell>
                <mxCell id="erokDJiNw9TIyuJxXN1H-32" value="+ Id: int&lt;br style=&quot;font-size: 18px;&quot;&gt;&lt;br style=&quot;font-size: 18px;&quot;&gt;" style="text;html=1;strokeColor=none;fillColor=none;align=left;verticalAlign=middle;spacingLeft=4;spacingRight=4;whiteSpace=wrap;overflow=hidden;rotatable=0;points=[[0,0.5],[1,0.5]];portConstraint=eastwest;fontSize=18;" parent="erokDJiNw9TIyuJxXN1H-31" vertex="1">
                    <mxGeometry y="26" width="160" height="26" as="geometry"/>
                </mxCell>
                <mxCell id="erokDJiNw9TIyuJxXN1H-33" value="+ License: str" style="text;html=1;strokeColor=none;fillColor=none;align=left;verticalAlign=middle;spacingLeft=4;spacingRight=4;whiteSpace=wrap;overflow=hidden;rotatable=0;points=[[0,0.5],[1,0.5]];portConstraint=eastwest;fontSize=18;" parent="erokDJiNw9TIyuJxXN1H-31" vertex="1">
                    <mxGeometry y="52" width="160" height="26" as="geometry"/>
                </mxCell>
                <mxCell id="erokDJiNw9TIyuJxXN1H-34" value="+ Driver: str" style="text;html=1;strokeColor=none;fillColor=none;align=left;verticalAlign=middle;spacingLeft=4;spacingRight=4;whiteSpace=wrap;overflow=hidden;rotatable=0;points=[[0,0.5],[1,0.5]];portConstraint=eastwest;fontSize=18;" parent="erokDJiNw9TIyuJxXN1H-31" vertex="1">
                    <mxGeometry y="78" width="160" height="26" as="geometry"/>
                </mxCell>
                <mxCell id="erokDJiNw9TIyuJxXN1H-35" value="+ Passengers: int" style="text;html=1;strokeColor=none;fillColor=none;align=left;verticalAlign=middle;spacingLeft=4;spacingRight=4;whiteSpace=wrap;overflow=hidden;rotatable=0;points=[[0,0.5],[1,0.5]];portConstraint=eastwest;fontSize=18;" parent="erokDJiNw9TIyuJxXN1H-31" vertex="1">
                    <mxGeometry y="104" width="160" height="26" as="geometry"/>
                </mxCell>
                <mxCell id="erokDJiNw9TIyuJxXN1H-37" value="" style="line;html=1;strokeWidth=1;fillColor=none;align=left;verticalAlign=middle;spacingTop=-1;spacingLeft=3;spacingRight=3;rotatable=0;labelPosition=right;points=[];portConstraint=eastwest;" parent="erokDJiNw9TIyuJxXN1H-31" vertex="1">
                    <mxGeometry y="130" width="160" height="8" as="geometry"/>
                </mxCell>
                <mxCell id="erokDJiNw9TIyuJxXN1H-55" value="" style="endArrow=none;html=1;verticalAlign=middle;" parent="1" edge="1">
                    <mxGeometry width="50" height="50" relative="1" as="geometry">
                        <mxPoint x="568.5" y="324" as="sourcePoint"/>
                        <mxPoint x="569" y="283" as="targetPoint"/>
                    </mxGeometry>
                </mxCell>
                <mxCell id="erokDJiNw9TIyuJxXN1H-56" value="" style="endArrow=none;html=1;verticalAlign=middle;" parent="1" edge="1">
                    <mxGeometry width="50" height="50" relative="1" as="geometry">
                        <mxPoint x="1090" y="283" as="sourcePoint"/>
                        <mxPoint x="570" y="283" as="targetPoint"/>
                    </mxGeometry>
                </mxCell>
                <mxCell id="erokDJiNw9TIyuJxXN1H-59" value="" style="endArrow=none;html=1;verticalAlign=middle;" parent="1" edge="1">
                    <mxGeometry width="50" height="50" relative="1" as="geometry">
                        <mxPoint x="1090" y="324" as="sourcePoint"/>
                        <mxPoint x="1090.5" y="283" as="targetPoint"/>
                    </mxGeometry>
                </mxCell>
                <mxCell id="erokDJiNw9TIyuJxXN1H-64" value="UberX" style="swimlane;html=1;fontStyle=1;align=center;verticalAlign=top;childLayout=stackLayout;horizontal=1;startSize=26;horizontalStack=0;resizeParent=1;resizeLast=0;collapsible=1;marginBottom=0;swimlaneFillColor=#ffffff;rounded=0;shadow=0;comic=0;labelBackgroundColor=none;strokeColor=#9673a6;strokeWidth=1;fillColor=#e1d5e7;fontFamily=Verdana;fontSize=18;" parent="1" vertex="1">
                    <mxGeometry x="110" y="1047" width="160" height="113" as="geometry"/>
                </mxCell>
                <mxCell id="erokDJiNw9TIyuJxXN1H-65" value="+ Brand: str" style="text;html=1;strokeColor=none;fillColor=none;align=left;verticalAlign=top;spacingLeft=4;spacingRight=4;whiteSpace=wrap;overflow=hidden;rotatable=0;points=[[0,0.5],[1,0.5]];portConstraint=eastwest;fontSize=18;" parent="erokDJiNw9TIyuJxXN1H-64" vertex="1">
                    <mxGeometry y="26" width="160" height="26" as="geometry"/>
                </mxCell>
                <mxCell id="erokDJiNw9TIyuJxXN1H-66" value="+ Model: str" style="text;html=1;strokeColor=none;fillColor=none;align=left;verticalAlign=top;spacingLeft=4;spacingRight=4;whiteSpace=wrap;overflow=hidden;rotatable=0;points=[[0,0.5],[1,0.5]];portConstraint=eastwest;fontSize=18;" parent="erokDJiNw9TIyuJxXN1H-64" vertex="1">
                    <mxGeometry y="52" width="160" height="26" as="geometry"/>
                </mxCell>
                <mxCell id="erokDJiNw9TIyuJxXN1H-70" value="" style="line;html=1;strokeWidth=1;fillColor=none;align=left;verticalAlign=middle;spacingTop=-1;spacingLeft=3;spacingRight=3;rotatable=0;labelPosition=right;points=[];portConstraint=eastwest;" parent="erokDJiNw9TIyuJxXN1H-64" vertex="1">
                    <mxGeometry y="78" width="160" height="8" as="geometry"/>
                </mxCell>
                <mxCell id="erokDJiNw9TIyuJxXN1H-71" value="UberPool" style="swimlane;html=1;fontStyle=1;align=center;verticalAlign=middle;childLayout=stackLayout;horizontal=1;startSize=26;horizontalStack=0;resizeParent=1;resizeLast=0;collapsible=1;marginBottom=0;swimlaneFillColor=#ffffff;rounded=0;shadow=0;comic=0;labelBackgroundColor=none;strokeColor=#9673a6;strokeWidth=1;fillColor=#e1d5e7;fontFamily=Verdana;fontSize=18;" parent="1" vertex="1">
                    <mxGeometry x="310" y="1047" width="160" height="113" as="geometry"/>
                </mxCell>
                <mxCell id="erokDJiNw9TIyuJxXN1H-72" value="+ Brand: str" style="text;html=1;strokeColor=none;fillColor=none;align=left;verticalAlign=middle;spacingLeft=4;spacingRight=4;whiteSpace=wrap;overflow=hidden;rotatable=0;points=[[0,0.5],[1,0.5]];portConstraint=eastwest;fontSize=18;" parent="erokDJiNw9TIyuJxXN1H-71" vertex="1">
                    <mxGeometry y="26" width="160" height="26" as="geometry"/>
                </mxCell>
                <mxCell id="erokDJiNw9TIyuJxXN1H-73" value="+ Model: str" style="text;html=1;strokeColor=none;fillColor=none;align=left;verticalAlign=middle;spacingLeft=4;spacingRight=4;whiteSpace=wrap;overflow=hidden;rotatable=0;points=[[0,0.5],[1,0.5]];portConstraint=eastwest;fontSize=18;" parent="erokDJiNw9TIyuJxXN1H-71" vertex="1">
                    <mxGeometry y="52" width="160" height="26" as="geometry"/>
                </mxCell>
                <mxCell id="erokDJiNw9TIyuJxXN1H-77" value="" style="line;html=1;strokeWidth=1;fillColor=none;align=left;verticalAlign=middle;spacingTop=-1;spacingLeft=3;spacingRight=3;rotatable=0;labelPosition=right;points=[];portConstraint=eastwest;" parent="erokDJiNw9TIyuJxXN1H-71" vertex="1">
                    <mxGeometry y="78" width="160" height="8" as="geometry"/>
                </mxCell>
                <mxCell id="erokDJiNw9TIyuJxXN1H-79" value="UberBlack" style="swimlane;html=1;fontStyle=1;align=center;verticalAlign=middle;childLayout=stackLayout;horizontal=1;startSize=26;horizontalStack=0;resizeParent=1;resizeLast=0;collapsible=1;marginBottom=0;swimlaneFillColor=#ffffff;rounded=0;shadow=0;comic=0;labelBackgroundColor=none;strokeColor=#9673a6;strokeWidth=1;fillColor=#e1d5e7;fontFamily=Verdana;fontSize=18;" parent="1" vertex="1">
                    <mxGeometry x="510" y="1048" width="160" height="112" as="geometry"/>
                </mxCell>
                <mxCell id="erokDJiNw9TIyuJxXN1H-80" value="+ typeCarAccepted: [str, int]" style="text;html=1;strokeColor=none;fillColor=none;align=left;verticalAlign=middle;spacingLeft=4;spacingRight=4;whiteSpace=wrap;overflow=hidden;rotatable=0;points=[[0,0.5],[1,0.5]];portConstraint=eastwest;fontSize=12;" parent="erokDJiNw9TIyuJxXN1H-79" vertex="1">
                    <mxGeometry y="26" width="160" height="26" as="geometry"/>
                </mxCell>
                <mxCell id="erokDJiNw9TIyuJxXN1H-81" value="+ seatsMaterial: [str]" style="text;html=1;strokeColor=none;fillColor=none;align=left;verticalAlign=middle;spacingLeft=4;spacingRight=4;whiteSpace=wrap;overflow=hidden;rotatable=0;points=[[0,0.5],[1,0.5]];portConstraint=eastwest;fontSize=12;" parent="erokDJiNw9TIyuJxXN1H-79" vertex="1">
                    <mxGeometry y="52" width="160" height="26" as="geometry"/>
                </mxCell>
                <mxCell id="erokDJiNw9TIyuJxXN1H-85" value="" style="line;html=1;strokeWidth=1;fillColor=none;align=left;verticalAlign=middle;spacingTop=-1;spacingLeft=3;spacingRight=3;rotatable=0;labelPosition=right;points=[];portConstraint=eastwest;" parent="erokDJiNw9TIyuJxXN1H-79" vertex="1">
                    <mxGeometry y="78" width="160" height="8" as="geometry"/>
                </mxCell>
                <mxCell id="erokDJiNw9TIyuJxXN1H-88" value="UberVan" style="swimlane;html=1;fontStyle=1;align=center;verticalAlign=middle;childLayout=stackLayout;horizontal=1;startSize=26;horizontalStack=0;resizeParent=1;resizeLast=0;collapsible=1;marginBottom=0;swimlaneFillColor=#ffffff;rounded=0;shadow=0;comic=0;labelBackgroundColor=none;strokeColor=#9673a6;strokeWidth=1;fillColor=#e1d5e7;fontFamily=Verdana;fontSize=18;" parent="1" vertex="1">
                    <mxGeometry x="710" y="1048" width="160" height="112" as="geometry"/>
                </mxCell>
                <mxCell id="erokDJiNw9TIyuJxXN1H-89" value="+ typeCarAccepted: [str, int]" style="text;html=1;strokeColor=none;fillColor=none;align=left;verticalAlign=middle;spacingLeft=4;spacingRight=4;whiteSpace=wrap;overflow=hidden;rotatable=0;points=[[0,0.5],[1,0.5]];portConstraint=eastwest;fontSize=12;" parent="erokDJiNw9TIyuJxXN1H-88" vertex="1">
                    <mxGeometry y="26" width="160" height="26" as="geometry"/>
                </mxCell>
                <mxCell id="erokDJiNw9TIyuJxXN1H-90" value="+ seatsMaterial: [str]" style="text;html=1;strokeColor=none;fillColor=none;align=left;verticalAlign=middle;spacingLeft=4;spacingRight=4;whiteSpace=wrap;overflow=hidden;rotatable=0;points=[[0,0.5],[1,0.5]];portConstraint=eastwest;fontSize=12;" parent="erokDJiNw9TIyuJxXN1H-88" vertex="1">
                    <mxGeometry y="52" width="160" height="26" as="geometry"/>
                </mxCell>
                <mxCell id="erokDJiNw9TIyuJxXN1H-94" value="" style="line;html=1;strokeWidth=1;fillColor=none;align=left;verticalAlign=middle;spacingTop=-1;spacingLeft=3;spacingRight=3;rotatable=0;labelPosition=right;points=[];portConstraint=eastwest;" parent="erokDJiNw9TIyuJxXN1H-88" vertex="1">
                    <mxGeometry y="78" width="160" height="8" as="geometry"/>
                </mxCell>
                <mxCell id="erokDJiNw9TIyuJxXN1H-97" value="Card" style="swimlane;html=1;fontStyle=1;align=center;verticalAlign=middle;childLayout=stackLayout;horizontal=1;startSize=26;horizontalStack=0;resizeParent=1;resizeLast=0;collapsible=1;marginBottom=0;swimlaneFillColor=#0d0d0d;rounded=0;shadow=0;comic=0;labelBackgroundColor=none;strokeColor=#9673a6;strokeWidth=1;fillColor=#e1d5e7;fontFamily=Verdana;fontSize=18;" parent="1" vertex="1">
                    <mxGeometry x="1410" y="1046" width="160" height="134" as="geometry"/>
                </mxCell>
                <mxCell id="erokDJiNw9TIyuJxXN1H-98" value="+ number: int" style="text;html=1;strokeColor=none;fillColor=none;align=left;verticalAlign=middle;spacingLeft=4;spacingRight=4;whiteSpace=wrap;overflow=hidden;rotatable=0;points=[[0,0.5],[1,0.5]];portConstraint=eastwest;fontSize=18;" parent="erokDJiNw9TIyuJxXN1H-97" vertex="1">
                    <mxGeometry y="26" width="160" height="26" as="geometry"/>
                </mxCell>
                <mxCell id="erokDJiNw9TIyuJxXN1H-99" value="+ cvv: int" style="text;html=1;strokeColor=none;fillColor=none;align=left;verticalAlign=middle;spacingLeft=4;spacingRight=4;whiteSpace=wrap;overflow=hidden;rotatable=0;points=[[0,0.5],[1,0.5]];portConstraint=eastwest;fontSize=18;" parent="erokDJiNw9TIyuJxXN1H-97" vertex="1">
                    <mxGeometry y="52" width="160" height="26" as="geometry"/>
                </mxCell>
                <mxCell id="erokDJiNw9TIyuJxXN1H-100" value="+ date: str" style="text;html=1;strokeColor=none;fillColor=none;align=left;verticalAlign=middle;spacingLeft=4;spacingRight=4;whiteSpace=wrap;overflow=hidden;rotatable=0;points=[[0,0.5],[1,0.5]];portConstraint=eastwest;fontSize=18;" parent="erokDJiNw9TIyuJxXN1H-97" vertex="1">
                    <mxGeometry y="78" width="160" height="26" as="geometry"/>
                </mxCell>
                <mxCell id="erokDJiNw9TIyuJxXN1H-103" value="" style="line;html=1;strokeWidth=1;fillColor=none;align=left;verticalAlign=middle;spacingTop=-1;spacingLeft=3;spacingRight=3;rotatable=0;labelPosition=right;points=[];portConstraint=eastwest;" parent="erokDJiNw9TIyuJxXN1H-97" vertex="1">
                    <mxGeometry y="104" width="160" height="8" as="geometry"/>
                </mxCell>
                <mxCell id="erokDJiNw9TIyuJxXN1H-104" value="PayPal" style="swimlane;html=1;fontStyle=1;align=center;verticalAlign=middle;childLayout=stackLayout;horizontal=1;startSize=26;horizontalStack=0;resizeParent=1;resizeLast=0;collapsible=1;marginBottom=0;swimlaneFillColor=#ffffff;rounded=0;shadow=0;comic=0;labelBackgroundColor=none;strokeColor=#9673a6;strokeWidth=1;fillColor=#e1d5e7;fontFamily=Verdana;fontSize=18;" parent="1" vertex="1">
                    <mxGeometry x="1610" y="1048" width="160" height="82" as="geometry"/>
                </mxCell>
                <mxCell id="erokDJiNw9TIyuJxXN1H-105" value="+ email: str" style="text;html=1;strokeColor=none;fillColor=none;align=left;verticalAlign=middle;spacingLeft=4;spacingRight=4;whiteSpace=wrap;overflow=hidden;rotatable=0;points=[[0,0.5],[1,0.5]];portConstraint=eastwest;fontSize=18;" parent="erokDJiNw9TIyuJxXN1H-104" vertex="1">
                    <mxGeometry y="26" width="160" height="26" as="geometry"/>
                </mxCell>
                <mxCell id="erokDJiNw9TIyuJxXN1H-110" value="" style="line;html=1;strokeWidth=1;fillColor=none;align=left;verticalAlign=middle;spacingTop=-1;spacingLeft=3;spacingRight=3;rotatable=0;labelPosition=right;points=[];portConstraint=eastwest;" parent="erokDJiNw9TIyuJxXN1H-104" vertex="1">
                    <mxGeometry y="52" width="160" height="8" as="geometry"/>
                </mxCell>
                <mxCell id="erokDJiNw9TIyuJxXN1H-111" value="Cash" style="swimlane;html=1;fontStyle=1;align=center;verticalAlign=middle;childLayout=stackLayout;horizontal=1;startSize=26;horizontalStack=0;resizeParent=1;resizeLast=0;collapsible=1;marginBottom=0;swimlaneFillColor=#ffffff;rounded=0;shadow=0;comic=0;labelBackgroundColor=none;strokeColor=#9673a6;strokeWidth=1;fillColor=#e1d5e7;fontFamily=Verdana;fontSize=18;" parent="1" vertex="1">
                    <mxGeometry x="1810" y="1048" width="160" height="82" as="geometry"/>
                </mxCell>
                <mxCell id="erokDJiNw9TIyuJxXN1H-112" value="+&amp;nbsp;&lt;br&gt;&lt;br&gt;" style="text;html=1;strokeColor=none;fillColor=none;align=left;verticalAlign=middle;spacingLeft=4;spacingRight=4;whiteSpace=wrap;overflow=hidden;rotatable=0;points=[[0,0.5],[1,0.5]];portConstraint=eastwest;" parent="erokDJiNw9TIyuJxXN1H-111" vertex="1">
                    <mxGeometry y="26" width="160" height="26" as="geometry"/>
                </mxCell>
                <mxCell id="erokDJiNw9TIyuJxXN1H-117" value="" style="line;html=1;strokeWidth=1;fillColor=none;align=left;verticalAlign=middle;spacingTop=-1;spacingLeft=3;spacingRight=3;rotatable=0;labelPosition=right;points=[];portConstraint=eastwest;" parent="erokDJiNw9TIyuJxXN1H-111" vertex="1">
                    <mxGeometry y="52" width="160" height="8" as="geometry"/>
                </mxCell>
                <mxCell id="erokDJiNw9TIyuJxXN1H-118" value="" style="endArrow=open;endFill=1;endSize=12;html=1;entryX=0.5;entryY=1;entryDx=0;entryDy=0;verticalAlign=middle;" parent="1" target="erokDJiNw9TIyuJxXN1H-10" edge="1">
                    <mxGeometry width="160" relative="1" as="geometry">
                        <mxPoint x="1090" y="483" as="sourcePoint"/>
                        <mxPoint x="1088.5" y="553.5" as="targetPoint"/>
                    </mxGeometry>
                </mxCell>
                <mxCell id="erokDJiNw9TIyuJxXN1H-120" value="" style="endArrow=block;endSize=16;endFill=0;html=1;verticalAlign=middle;" parent="1" edge="1">
                    <mxGeometry x="0.4398" width="160" relative="1" as="geometry">
                        <mxPoint x="830" y="283" as="sourcePoint"/>
                        <mxPoint x="831.5" y="244" as="targetPoint"/>
                        <mxPoint as="offset"/>
                    </mxGeometry>
                </mxCell>
                <mxCell id="erokDJiNw9TIyuJxXN1H-121" value="" style="endArrow=open;endFill=1;endSize=12;html=1;entryX=0.5;entryY=1;entryDx=0;entryDy=0;exitX=1;exitY=0.5;exitDx=0;exitDy=0;exitPerimeter=0;verticalAlign=middle;" parent="1" source="erokDJiNw9TIyuJxXN1H-127" target="erokDJiNw9TIyuJxXN1H-3" edge="1">
                    <mxGeometry width="160" relative="1" as="geometry">
                        <mxPoint x="570" y="603.5" as="sourcePoint"/>
                        <mxPoint x="571.1666666666665" y="515.1666666666667" as="targetPoint"/>
                    </mxGeometry>
                </mxCell>
                <mxCell id="erokDJiNw9TIyuJxXN1H-125" value="" style="line;strokeWidth=2;direction=south;html=1;verticalAlign=middle;" parent="1" vertex="1">
                    <mxGeometry x="325" y="485" width="10" height="320" as="geometry"/>
                </mxCell>
                <mxCell id="erokDJiNw9TIyuJxXN1H-127" value="" style="line;strokeWidth=2;html=1;verticalAlign=middle;" parent="1" vertex="1">
                    <mxGeometry x="490" y="481" width="80" height="10" as="geometry"/>
                </mxCell>
                <mxCell id="erokDJiNw9TIyuJxXN1H-129" value="" style="line;strokeWidth=2;html=1;verticalAlign=middle;" parent="1" vertex="1">
                    <mxGeometry x="330" y="852" width="80" height="10" as="geometry"/>
                </mxCell>
                <mxCell id="erokDJiNw9TIyuJxXN1H-130" value="" style="line;strokeWidth=2;direction=south;html=1;verticalAlign=middle;" parent="1" vertex="1">
                    <mxGeometry x="325" y="686" width="10" height="171" as="geometry"/>
                </mxCell>
                <mxCell id="erokDJiNw9TIyuJxXN1H-131" value="" style="line;strokeWidth=2;html=1;verticalAlign=middle;" parent="1" vertex="1">
                    <mxGeometry x="330" y="481" width="160" height="10" as="geometry"/>
                </mxCell>
                <mxCell id="erokDJiNw9TIyuJxXN1H-133" value="" style="endArrow=diamondThin;endFill=1;endSize=24;html=1;exitX=0.5;exitY=0;exitDx=0;exitDy=0;verticalAlign=middle;entryX=0.5;entryY=1;entryDx=0;entryDy=0;" parent="1" source="erokDJiNw9TIyuJxXN1H-24" target="erokDJiNw9TIyuJxXN1H-17" edge="1">
                    <mxGeometry width="160" relative="1" as="geometry">
                        <mxPoint x="1088.5" y="726" as="sourcePoint"/>
                        <mxPoint x="1088.5" y="674" as="targetPoint"/>
                    </mxGeometry>
                </mxCell>
                <mxCell id="erokDJiNw9TIyuJxXN1H-135" value="" style="line;strokeWidth=2;html=1;verticalAlign=middle;" parent="1" vertex="1">
                    <mxGeometry x="490" y="721" width="1200" height="10" as="geometry"/>
                </mxCell>
                <mxCell id="erokDJiNw9TIyuJxXN1H-137" value="" style="line;strokeWidth=2;html=1;direction=south;verticalAlign=middle;" parent="1" vertex="1">
                    <mxGeometry x="485" y="726" width="10" height="40" as="geometry"/>
                </mxCell>
                <mxCell id="erokDJiNw9TIyuJxXN1H-138" value="" style="line;strokeWidth=2;html=1;direction=north;verticalAlign=middle;" parent="1" vertex="1">
                    <mxGeometry x="1685" y="726" width="10" height="38" as="geometry"/>
                </mxCell>
                <mxCell id="erokDJiNw9TIyuJxXN1H-142" value="" style="endArrow=block;endSize=16;endFill=0;html=1;exitX=0.5;exitY=0;exitDx=0;exitDy=0;verticalAlign=middle;entryX=0.5;entryY=1;entryDx=0;entryDy=0;" parent="1" source="erokDJiNw9TIyuJxXN1H-104" target="erokDJiNw9TIyuJxXN1H-171" edge="1">
                    <mxGeometry x="0.4398" width="160" relative="1" as="geometry">
                        <mxPoint x="1690" y="1006" as="sourcePoint"/>
                        <mxPoint x="1690" y="910" as="targetPoint"/>
                        <mxPoint as="offset"/>
                    </mxGeometry>
                </mxCell>
                <mxCell id="erokDJiNw9TIyuJxXN1H-144" value="" style="line;strokeWidth=2;html=1;direction=south;verticalAlign=middle;" parent="1" vertex="1">
                    <mxGeometry x="1485" y="1006" width="10" height="40" as="geometry"/>
                </mxCell>
                <mxCell id="erokDJiNw9TIyuJxXN1H-151" value="" style="line;strokeWidth=2;html=1;direction=south;verticalAlign=middle;" parent="1" vertex="1">
                    <mxGeometry x="1885" y="1007" width="10" height="40" as="geometry"/>
                </mxCell>
                <mxCell id="erokDJiNw9TIyuJxXN1H-152" value="" style="line;strokeWidth=2;html=1;verticalAlign=middle;" parent="1" vertex="1">
                    <mxGeometry x="1490" y="1001" width="400" height="10" as="geometry"/>
                </mxCell>
                <mxCell id="erokDJiNw9TIyuJxXN1H-155" value="" style="endArrow=block;endSize=16;endFill=0;html=1;verticalAlign=middle;entryX=0.5;entryY=1;entryDx=0;entryDy=0;" parent="1" target="erokDJiNw9TIyuJxXN1H-31" edge="1">
                    <mxGeometry x="0.4398" width="160" relative="1" as="geometry">
                        <mxPoint x="489.5" y="1007" as="sourcePoint"/>
                        <mxPoint x="489.5" y="955" as="targetPoint"/>
                        <mxPoint as="offset"/>
                    </mxGeometry>
                </mxCell>
                <mxCell id="erokDJiNw9TIyuJxXN1H-158" value="" style="line;strokeWidth=2;html=1;verticalAlign=middle;" parent="1" vertex="1">
                    <mxGeometry x="190" y="1001" width="600" height="10" as="geometry"/>
                </mxCell>
                <mxCell id="erokDJiNw9TIyuJxXN1H-159" value="" style="line;strokeWidth=2;html=1;direction=south;verticalAlign=middle;" parent="1" vertex="1">
                    <mxGeometry x="785" y="1007" width="10" height="40" as="geometry"/>
                </mxCell>
                <mxCell id="erokDJiNw9TIyuJxXN1H-160" value="" style="line;strokeWidth=2;html=1;direction=south;verticalAlign=middle;" parent="1" vertex="1">
                    <mxGeometry x="585" y="1006" width="10" height="40" as="geometry"/>
                </mxCell>
                <mxCell id="erokDJiNw9TIyuJxXN1H-161" value="" style="line;strokeWidth=2;html=1;direction=south;verticalAlign=middle;" parent="1" vertex="1">
                    <mxGeometry x="385" y="1007" width="10" height="40" as="geometry"/>
                </mxCell>
                <mxCell id="erokDJiNw9TIyuJxXN1H-164" value="" style="line;strokeWidth=2;html=1;direction=south;verticalAlign=middle;" parent="1" vertex="1">
                    <mxGeometry x="185" y="1006" width="10" height="40" as="geometry"/>
                </mxCell>
                <mxCell id="erokDJiNw9TIyuJxXN1H-171" value="Payment" style="swimlane;html=1;fontStyle=1;align=center;verticalAlign=middle;childLayout=stackLayout;horizontal=1;startSize=26;horizontalStack=0;resizeParent=1;resizeLast=0;collapsible=1;marginBottom=0;swimlaneFillColor=#ffffff;rounded=0;shadow=0;comic=0;labelBackgroundColor=none;strokeColor=#d79b00;strokeWidth=1;fillColor=#ffe6cc;fontFamily=Verdana;fontSize=18;" parent="1" vertex="1">
                    <mxGeometry x="1610" y="766" width="160" height="111" as="geometry"/>
                </mxCell>
                <mxCell id="erokDJiNw9TIyuJxXN1H-172" value="+ Id: int" style="text;html=1;strokeColor=none;fillColor=none;align=left;verticalAlign=middle;spacingLeft=4;spacingRight=4;whiteSpace=wrap;overflow=hidden;rotatable=0;points=[[0,0.5],[1,0.5]];portConstraint=eastwest;fontSize=16;" parent="erokDJiNw9TIyuJxXN1H-171" vertex="1">
                    <mxGeometry y="26" width="160" height="26" as="geometry"/>
                </mxCell>
                <mxCell id="erokDJiNw9TIyuJxXN1H-173" value="+ Cost: float" style="text;html=1;strokeColor=none;fillColor=none;align=left;verticalAlign=middle;spacingLeft=4;spacingRight=4;whiteSpace=wrap;overflow=hidden;rotatable=0;points=[[0,0.5],[1,0.5]];portConstraint=eastwest;fontSize=16;" parent="erokDJiNw9TIyuJxXN1H-171" vertex="1">
                    <mxGeometry y="52" width="160" height="26" as="geometry"/>
                </mxCell>
                <mxCell id="erokDJiNw9TIyuJxXN1H-174" value="" style="line;html=1;strokeWidth=1;fillColor=none;align=left;verticalAlign=middle;spacingTop=-1;spacingLeft=3;spacingRight=3;rotatable=0;labelPosition=right;points=[];portConstraint=eastwest;" parent="erokDJiNw9TIyuJxXN1H-171" vertex="1">
                    <mxGeometry y="78" width="160" height="8" as="geometry"/>
                </mxCell>
            </root>
        </mxGraphModel>
    </diagram>
</mxfile>